M48
; DRILL file {KiCad (5.1.7)-1} date 02/05/21 18:36:16
; FORMAT={-:-/ absolute / inch / decimal}
; #@! TF.CreationDate,2021-02-05T18:36:16-06:00
; #@! TF.GenerationSoftware,Kicad,Pcbnew,(5.1.7)-1
FMAT,2
INCH
T1C0.0157
T2C0.0197
T3C0.0315
T4C0.0354
T5C0.0394
T6C0.0433
T7C0.0472
T8C0.0520
T9C0.0743
T10C0.0866
T11C0.1260
%
G90
G05
T1
X5.8234Y-4.0453
T2
X0.9291Y-4.8425
X0.9568Y-4.7757
X0.9568Y-4.9093
X1.0236Y-4.748
X1.0236Y-4.937
X1.0904Y-4.7757
X1.0904Y-4.9093
X1.1181Y-4.8425
X5.5453Y-2.9232
X5.573Y-2.8564
X5.573Y-2.99
X5.6398Y-2.8287
X5.6398Y-3.0177
X5.7066Y-2.8564
X5.7066Y-2.99
X5.7343Y-2.9232
X0.9193Y-2.9232
X0.947Y-2.8564
X0.947Y-2.99
X1.0138Y-2.8287
X1.0138Y-3.0177
X1.0806Y-2.8564
X1.0806Y-2.99
X1.1083Y-2.9232
X5.5551Y-4.8425
X5.5828Y-4.7757
X5.5828Y-4.9093
X5.6496Y-4.748
X5.6496Y-4.937
X5.7164Y-4.7757
X5.7164Y-4.9093
X5.7441Y-4.8425
X10.1614Y-3.8878
X10.1891Y-3.821
X10.1891Y-3.9546
X10.2559Y-3.7933
X10.2559Y-3.9823
X10.3227Y-3.821
X10.3227Y-3.9546
X10.3504Y-3.8878
T3
X4.3632Y-3.0456
X4.4616Y-3.0456
X5.0591Y-4.626
X5.1575Y-4.626
X5.0591Y-3.8484
X5.1575Y-3.8484
X4.3386Y-4.6329
X4.437Y-4.6329
X4.5768Y-4.252
X4.9768Y-4.252
X4.5508Y-3.4646
X4.9508Y-3.4646
X4.5764Y-4.1142
X4.9764Y-4.1142
X5.0611Y-3.0456
X5.1595Y-3.0456
X4.3602Y-3.8484
X4.4587Y-3.8484
T4
X5.6201Y-3.6319
X5.7201Y-3.6319
X5.6201Y-4.1486
X5.7201Y-4.1486
X5.6201Y-3.8907
X5.7201Y-3.8907
T5
X6.811Y-3.5335
X6.811Y-3.6335
X6.811Y-3.7335
X6.811Y-3.8335
X6.811Y-3.9335
X6.811Y-4.0335
X6.811Y-4.1335
X6.811Y-4.2335
X6.911Y-3.5335
X6.911Y-3.6335
X6.911Y-3.7335
X6.911Y-3.8335
X6.911Y-3.9335
X6.911Y-4.0335
X6.911Y-4.1335
X6.911Y-4.2335
X1.1106Y-3.5531
X1.2106Y-3.5531
X9.5866Y-3.5335
X9.5866Y-3.6335
X9.5866Y-3.7335
X9.5866Y-3.8335
X9.5866Y-3.9335
X9.5866Y-4.0335
X9.5866Y-4.1335
X9.5866Y-4.2335
X9.6866Y-3.5335
X9.6866Y-3.6335
X9.6866Y-3.7335
X9.6866Y-3.8335
X9.6866Y-3.9335
X9.6866Y-4.0335
X9.6866Y-4.1335
X9.6866Y-4.2335
X6.1024Y-3.5335
X6.1024Y-3.6335
X6.1024Y-3.7335
X6.1024Y-3.8335
X6.1024Y-3.9335
X6.1024Y-4.0335
X6.1024Y-4.1335
X6.1024Y-4.2335
X6.2024Y-3.5335
X6.2024Y-3.6335
X6.2024Y-3.7335
X6.2024Y-3.8335
X6.2024Y-3.9335
X6.2024Y-4.0335
X6.2024Y-4.1335
X6.2024Y-4.2335
X8.9075Y-3.5335
X8.9075Y-3.6335
X8.9075Y-3.7335
X8.9075Y-3.8335
X8.9075Y-3.9335
X8.9075Y-4.0335
X8.9075Y-4.1335
X8.9075Y-4.2335
X9.0075Y-3.5335
X9.0075Y-3.6335
X9.0075Y-3.7335
X9.0075Y-3.8335
X9.0075Y-3.9335
X9.0075Y-4.0335
X9.0075Y-4.1335
X9.0075Y-4.2335
X8.2087Y-3.5335
X8.2087Y-3.6335
X8.2087Y-3.7335
X8.2087Y-3.8335
X8.2087Y-3.9335
X8.2087Y-4.0335
X8.2087Y-4.1335
X8.2087Y-4.2335
X8.3087Y-3.5335
X8.3087Y-3.6335
X8.3087Y-3.7335
X8.3087Y-3.8335
X8.3087Y-3.9335
X8.3087Y-4.0335
X8.3087Y-4.1335
X8.3087Y-4.2335
X1.1106Y-4.2913
X1.2106Y-4.2913
X7.5197Y-3.5335
X7.5197Y-3.6335
X7.5197Y-3.7335
X7.5197Y-3.8335
X7.5197Y-3.9335
X7.5197Y-4.0335
X7.5197Y-4.1335
X7.5197Y-4.2335
X7.6197Y-3.5335
X7.6197Y-3.6335
X7.6197Y-3.7335
X7.6197Y-3.8335
X7.6197Y-3.9335
X7.6197Y-4.0335
X7.6197Y-4.1335
X7.6197Y-4.2335
T6
X4.5571Y-3.3071
X4.9571Y-3.3071
X4.6625Y-3.8848
X4.7625Y-3.8848
X4.8625Y-3.8848
X1.565Y-2.8642
X1.565Y-3.2642
X1.5659Y-4.438
X1.5659Y-4.838
X1.565Y-3.66
X1.565Y-4.06
T7
X2.7077Y-3.8494
X3.003Y-3.8494
X2.7096Y-4.6329
X3.0049Y-4.6329
X1.9606Y-3.8455
X2.2559Y-3.8455
X2.7067Y-3.0748
X3.002Y-3.0748
X3.4547Y-3.0758
X3.75Y-3.0758
X3.4537Y-3.8514
X3.749Y-3.8514
X1.9587Y-3.0758
X2.2539Y-3.0758
X3.4577Y-4.6329
X3.753Y-4.6329
X1.9636Y-4.6339
X2.2589Y-4.6339
T8
X4.6496Y-4.6644
X4.75Y-4.6644
X4.8504Y-4.6644
X4.6625Y-3.0781
X4.7629Y-3.0781
X4.8633Y-3.0781
T9
X1.0443Y-3.8888
X1.1624Y-4.0738
X1.2805Y-3.8888
T10
X0.8671Y-3.8888
T11
X5.6398Y-2.9232
X1.0138Y-2.9232
X5.6496Y-4.8425
X10.2559Y-3.8878
X1.0236Y-4.8425
T0
M30
