%TF.GenerationSoftware,KiCad,Pcbnew,(5.1.7)-1*%
%TF.CreationDate,2021-02-05T18:36:13-06:00*%
%TF.ProjectId,Power Supply,506f7765-7220-4537-9570-706c792e6b69,rev?*%
%TF.SameCoordinates,Original*%
%TF.FileFunction,Soldermask,Top*%
%TF.FilePolarity,Negative*%
%FSLAX46Y46*%
G04 Gerber Fmt 4.6, Leading zero omitted, Abs format (unit mm)*
G04 Created by KiCad (PCBNEW (5.1.7)-1) date 2021-02-05 18:36:13*
%MOMM*%
%LPD*%
G01*
G04 APERTURE LIST*
%ADD10C,6.400000*%
%ADD11C,0.800000*%
%ADD12O,1.905000X2.000000*%
%ADD13R,1.905000X2.000000*%
%ADD14C,1.980000*%
%ADD15R,1.980000X1.980000*%
%ADD16O,1.600000X1.600000*%
%ADD17C,1.600000*%
%ADD18O,1.700000X1.700000*%
%ADD19R,1.700000X1.700000*%
%ADD20C,1.100000*%
%ADD21C,2.830000*%
%ADD22O,2.200000X2.200000*%
%ADD23R,2.200000X2.200000*%
%ADD24C,1.800000*%
%ADD25R,1.800000X1.800000*%
%ADD26C,2.400000*%
%ADD27R,2.400000X2.400000*%
G04 APERTURE END LIST*
D10*
%TO.C,REF\u002A\u002A*%
X260500000Y-98750000D03*
D11*
X262900000Y-98750000D03*
X262197056Y-100447056D03*
X260500000Y-101150000D03*
X258802944Y-100447056D03*
X258100000Y-98750000D03*
X258802944Y-97052944D03*
X260500000Y-96350000D03*
X262197056Y-97052944D03*
%TD*%
D10*
%TO.C,REF\u002A\u002A*%
X25750000Y-74250000D03*
D11*
X28150000Y-74250000D03*
X27447056Y-75947056D03*
X25750000Y-76650000D03*
X24052944Y-75947056D03*
X23350000Y-74250000D03*
X24052944Y-72552944D03*
X25750000Y-71850000D03*
X27447056Y-72552944D03*
%TD*%
%TO.C,REF\u002A\u002A*%
X27697056Y-121302944D03*
X26000000Y-120600000D03*
X24302944Y-121302944D03*
X23600000Y-123000000D03*
X24302944Y-124697056D03*
X26000000Y-125400000D03*
X27697056Y-124697056D03*
X28400000Y-123000000D03*
D10*
X26000000Y-123000000D03*
%TD*%
%TO.C,REF\u002A\u002A*%
X143500000Y-123000000D03*
D11*
X145900000Y-123000000D03*
X145197056Y-124697056D03*
X143500000Y-125400000D03*
X141802944Y-124697056D03*
X141100000Y-123000000D03*
X141802944Y-121302944D03*
X143500000Y-120600000D03*
X145197056Y-121302944D03*
%TD*%
%TO.C,REF\u002A\u002A*%
X144947056Y-72552944D03*
X143250000Y-71850000D03*
X141552944Y-72552944D03*
X140850000Y-74250000D03*
X141552944Y-75947056D03*
X143250000Y-76650000D03*
X144947056Y-75947056D03*
X145650000Y-74250000D03*
D10*
X143250000Y-74250000D03*
%TD*%
D12*
%TO.C,U3*%
X123507513Y-98675000D03*
X120967513Y-98675000D03*
D13*
X118427513Y-98675000D03*
%TD*%
D14*
%TO.C,U2*%
X123200000Y-118475000D03*
X120650000Y-118475000D03*
D15*
X118100000Y-118475000D03*
%TD*%
D16*
%TO.C,R3*%
X116240000Y-104500000D03*
D17*
X126400000Y-104500000D03*
%TD*%
D16*
%TO.C,R2*%
X126410000Y-108000000D03*
D17*
X116250000Y-108000000D03*
%TD*%
D16*
%TO.C,R1*%
X115590000Y-88000000D03*
D17*
X125750000Y-88000000D03*
%TD*%
D18*
%TO.C,J4*%
X157540000Y-107530000D03*
X155000000Y-107530000D03*
X157540000Y-104990000D03*
X155000000Y-104990000D03*
X157540000Y-102450000D03*
X155000000Y-102450000D03*
X157540000Y-99910000D03*
X155000000Y-99910000D03*
X157540000Y-97370000D03*
X155000000Y-97370000D03*
X157540000Y-94830000D03*
X155000000Y-94830000D03*
X157540000Y-92290000D03*
X155000000Y-92290000D03*
X157540000Y-89750000D03*
D19*
X155000000Y-89750000D03*
%TD*%
D20*
%TO.C,J1*%
X22025000Y-98775000D03*
D21*
X29525000Y-103475000D03*
X26525000Y-98775000D03*
X32525000Y-98775000D03*
%TD*%
D22*
%TO.C,D7*%
X39750000Y-92965000D03*
D23*
X39750000Y-103125000D03*
%TD*%
D24*
%TO.C,D3*%
X145290000Y-98825000D03*
D25*
X142750000Y-98825000D03*
%TD*%
D24*
%TO.C,D2*%
X145290000Y-105375000D03*
D25*
X142750000Y-105375000D03*
%TD*%
D24*
%TO.C,D1*%
X145290000Y-92250000D03*
D25*
X142750000Y-92250000D03*
%TD*%
D22*
%TO.C,D4*%
X125910000Y-84000000D03*
D23*
X115750000Y-84000000D03*
%TD*%
D22*
%TO.C,D6*%
X39775000Y-122885000D03*
D23*
X39775000Y-112725000D03*
%TD*%
D22*
%TO.C,D5*%
X39750000Y-82910000D03*
D23*
X39750000Y-72750000D03*
%TD*%
D26*
%TO.C,C13*%
X95225000Y-97825000D03*
D27*
X87725000Y-97825000D03*
%TD*%
D26*
%TO.C,C12*%
X76275000Y-97775000D03*
D27*
X68775000Y-97775000D03*
%TD*%
D26*
%TO.C,C11*%
X57300000Y-97675001D03*
D27*
X49800000Y-97675001D03*
%TD*%
D26*
%TO.C,C8*%
X76324441Y-117675001D03*
D27*
X68824441Y-117675001D03*
%TD*%
D26*
%TO.C,C7*%
X95325000Y-117675000D03*
D27*
X87825000Y-117675000D03*
%TD*%
D26*
%TO.C,C6*%
X57375000Y-117700000D03*
D27*
X49875000Y-117700000D03*
%TD*%
D26*
%TO.C,C3*%
X95250000Y-78125000D03*
D27*
X87750000Y-78125000D03*
%TD*%
D26*
%TO.C,C2*%
X76250000Y-78100000D03*
D27*
X68750000Y-78100000D03*
%TD*%
D26*
%TO.C,C1*%
X57250000Y-78125000D03*
D27*
X49750000Y-78125000D03*
%TD*%
D15*
%TO.C,U1*%
X118427513Y-78183578D03*
D14*
X120977513Y-78183578D03*
X123527513Y-78183578D03*
%TD*%
D17*
%TO.C,C4*%
X110825000Y-77358579D03*
X113325000Y-77358579D03*
%TD*%
%TO.C,C5*%
X128552513Y-77358579D03*
X131052513Y-77358579D03*
%TD*%
%TO.C,C9*%
X110200000Y-117675000D03*
X112700000Y-117675000D03*
%TD*%
%TO.C,C10*%
X128500000Y-117500000D03*
X131000000Y-117500000D03*
%TD*%
%TO.C,C14*%
X110750000Y-97750000D03*
X113250000Y-97750000D03*
%TD*%
%TO.C,C15*%
X128500000Y-97750000D03*
X131000000Y-97750000D03*
%TD*%
D19*
%TO.C,J2*%
X30750000Y-90250000D03*
D18*
X28210000Y-90250000D03*
%TD*%
%TO.C,J3*%
X28210000Y-109000000D03*
D19*
X30750000Y-109000000D03*
%TD*%
%TO.C,J5*%
X173000000Y-89750000D03*
D18*
X175540000Y-89750000D03*
X173000000Y-92290000D03*
X175540000Y-92290000D03*
X173000000Y-94830000D03*
X175540000Y-94830000D03*
X173000000Y-97370000D03*
X175540000Y-97370000D03*
X173000000Y-99910000D03*
X175540000Y-99910000D03*
X173000000Y-102450000D03*
X175540000Y-102450000D03*
X173000000Y-104990000D03*
X175540000Y-104990000D03*
X173000000Y-107530000D03*
X175540000Y-107530000D03*
%TD*%
%TO.C,J6*%
X193540000Y-107530000D03*
X191000000Y-107530000D03*
X193540000Y-104990000D03*
X191000000Y-104990000D03*
X193540000Y-102450000D03*
X191000000Y-102450000D03*
X193540000Y-99910000D03*
X191000000Y-99910000D03*
X193540000Y-97370000D03*
X191000000Y-97370000D03*
X193540000Y-94830000D03*
X191000000Y-94830000D03*
X193540000Y-92290000D03*
X191000000Y-92290000D03*
X193540000Y-89750000D03*
D19*
X191000000Y-89750000D03*
%TD*%
%TO.C,J7*%
X208500000Y-89750000D03*
D18*
X211040000Y-89750000D03*
X208500000Y-92290000D03*
X211040000Y-92290000D03*
X208500000Y-94830000D03*
X211040000Y-94830000D03*
X208500000Y-97370000D03*
X211040000Y-97370000D03*
X208500000Y-99910000D03*
X211040000Y-99910000D03*
X208500000Y-102450000D03*
X211040000Y-102450000D03*
X208500000Y-104990000D03*
X211040000Y-104990000D03*
X208500000Y-107530000D03*
X211040000Y-107530000D03*
%TD*%
%TO.C,J8*%
X228790000Y-107530000D03*
X226250000Y-107530000D03*
X228790000Y-104990000D03*
X226250000Y-104990000D03*
X228790000Y-102450000D03*
X226250000Y-102450000D03*
X228790000Y-99910000D03*
X226250000Y-99910000D03*
X228790000Y-97370000D03*
X226250000Y-97370000D03*
X228790000Y-94830000D03*
X226250000Y-94830000D03*
X228790000Y-92290000D03*
X226250000Y-92290000D03*
X228790000Y-89750000D03*
D19*
X226250000Y-89750000D03*
%TD*%
%TO.C,J9*%
X243500000Y-89750000D03*
D18*
X246040000Y-89750000D03*
X243500000Y-92290000D03*
X246040000Y-92290000D03*
X243500000Y-94830000D03*
X246040000Y-94830000D03*
X243500000Y-97370000D03*
X246040000Y-97370000D03*
X243500000Y-99910000D03*
X246040000Y-99910000D03*
X243500000Y-102450000D03*
X246040000Y-102450000D03*
X243500000Y-104990000D03*
X246040000Y-104990000D03*
X243500000Y-107530000D03*
X246040000Y-107530000D03*
%TD*%
M02*
