%TF.GenerationSoftware,KiCad,Pcbnew,(5.1.7)-1*%
%TF.CreationDate,2021-02-05T18:36:13-06:00*%
%TF.ProjectId,Power Supply,506f7765-7220-4537-9570-706c792e6b69,rev?*%
%TF.SameCoordinates,Original*%
%TF.FileFunction,Legend,Bot*%
%TF.FilePolarity,Positive*%
%FSLAX46Y46*%
G04 Gerber Fmt 4.6, Leading zero omitted, Abs format (unit mm)*
G04 Created by KiCad (PCBNEW (5.1.7)-1) date 2021-02-05 18:36:13*
%MOMM*%
%LPD*%
G01*
G04 APERTURE LIST*
%ADD10C,0.150000*%
G04 APERTURE END LIST*
D10*
X254047619Y-102940476D02*
X253047619Y-102607142D01*
X254047619Y-102273809D01*
X253095238Y-101559523D02*
X253047619Y-101654761D01*
X253047619Y-101845238D01*
X253095238Y-101940476D01*
X253190476Y-101988095D01*
X253571428Y-101988095D01*
X253666666Y-101940476D01*
X253714285Y-101845238D01*
X253714285Y-101654761D01*
X253666666Y-101559523D01*
X253571428Y-101511904D01*
X253476190Y-101511904D01*
X253380952Y-101988095D01*
X253047619Y-101083333D02*
X253714285Y-101083333D01*
X253523809Y-101083333D02*
X253619047Y-101035714D01*
X253666666Y-100988095D01*
X253714285Y-100892857D01*
X253714285Y-100797619D01*
X253095238Y-100511904D02*
X253047619Y-100416666D01*
X253047619Y-100226190D01*
X253095238Y-100130952D01*
X253190476Y-100083333D01*
X253238095Y-100083333D01*
X253333333Y-100130952D01*
X253380952Y-100226190D01*
X253380952Y-100369047D01*
X253428571Y-100464285D01*
X253523809Y-100511904D01*
X253571428Y-100511904D01*
X253666666Y-100464285D01*
X253714285Y-100369047D01*
X253714285Y-100226190D01*
X253666666Y-100130952D01*
X253047619Y-99654761D02*
X253714285Y-99654761D01*
X254047619Y-99654761D02*
X254000000Y-99702380D01*
X253952380Y-99654761D01*
X254000000Y-99607142D01*
X254047619Y-99654761D01*
X253952380Y-99654761D01*
X253047619Y-99035714D02*
X253095238Y-99130952D01*
X253142857Y-99178571D01*
X253238095Y-99226190D01*
X253523809Y-99226190D01*
X253619047Y-99178571D01*
X253666666Y-99130952D01*
X253714285Y-99035714D01*
X253714285Y-98892857D01*
X253666666Y-98797619D01*
X253619047Y-98750000D01*
X253523809Y-98702380D01*
X253238095Y-98702380D01*
X253142857Y-98750000D01*
X253095238Y-98797619D01*
X253047619Y-98892857D01*
X253047619Y-99035714D01*
X253714285Y-98273809D02*
X253047619Y-98273809D01*
X253619047Y-98273809D02*
X253666666Y-98226190D01*
X253714285Y-98130952D01*
X253714285Y-97988095D01*
X253666666Y-97892857D01*
X253571428Y-97845238D01*
X253047619Y-97845238D01*
X253047619Y-96083333D02*
X253047619Y-96654761D01*
X253047619Y-96369047D02*
X254047619Y-96369047D01*
X253904761Y-96464285D01*
X253809523Y-96559523D01*
X253761904Y-96654761D01*
X253142857Y-95654761D02*
X253095238Y-95607142D01*
X253047619Y-95654761D01*
X253095238Y-95702380D01*
X253142857Y-95654761D01*
X253047619Y-95654761D01*
X254047619Y-94988095D02*
X254047619Y-94892857D01*
X254000000Y-94797619D01*
X253952380Y-94750000D01*
X253857142Y-94702380D01*
X253666666Y-94654761D01*
X253428571Y-94654761D01*
X253238095Y-94702380D01*
X253142857Y-94750000D01*
X253095238Y-94797619D01*
X253047619Y-94892857D01*
X253047619Y-94988095D01*
X253095238Y-95083333D01*
X253142857Y-95130952D01*
X253238095Y-95178571D01*
X253428571Y-95226190D01*
X253666666Y-95226190D01*
X253857142Y-95178571D01*
X253952380Y-95130952D01*
X254000000Y-95083333D01*
X254047619Y-94988095D01*
X98845238Y-91857142D02*
X98892857Y-91904761D01*
X99035714Y-91952380D01*
X99130952Y-91952380D01*
X99273809Y-91904761D01*
X99369047Y-91809523D01*
X99416666Y-91714285D01*
X99464285Y-91523809D01*
X99464285Y-91380952D01*
X99416666Y-91190476D01*
X99369047Y-91095238D01*
X99273809Y-91000000D01*
X99130952Y-90952380D01*
X99035714Y-90952380D01*
X98892857Y-91000000D01*
X98845238Y-91047619D01*
X98416666Y-91952380D02*
X98416666Y-91285714D01*
X98416666Y-91476190D02*
X98369047Y-91380952D01*
X98321428Y-91333333D01*
X98226190Y-91285714D01*
X98130952Y-91285714D01*
X97416666Y-91904761D02*
X97511904Y-91952380D01*
X97702380Y-91952380D01*
X97797619Y-91904761D01*
X97845238Y-91809523D01*
X97845238Y-91428571D01*
X97797619Y-91333333D01*
X97702380Y-91285714D01*
X97511904Y-91285714D01*
X97416666Y-91333333D01*
X97369047Y-91428571D01*
X97369047Y-91523809D01*
X97845238Y-91619047D01*
X96511904Y-91952380D02*
X96511904Y-91428571D01*
X96559523Y-91333333D01*
X96654761Y-91285714D01*
X96845238Y-91285714D01*
X96940476Y-91333333D01*
X96511904Y-91904761D02*
X96607142Y-91952380D01*
X96845238Y-91952380D01*
X96940476Y-91904761D01*
X96988095Y-91809523D01*
X96988095Y-91714285D01*
X96940476Y-91619047D01*
X96845238Y-91571428D01*
X96607142Y-91571428D01*
X96511904Y-91523809D01*
X96178571Y-91285714D02*
X95797619Y-91285714D01*
X96035714Y-90952380D02*
X96035714Y-91809523D01*
X95988095Y-91904761D01*
X95892857Y-91952380D01*
X95797619Y-91952380D01*
X95083333Y-91904761D02*
X95178571Y-91952380D01*
X95369047Y-91952380D01*
X95464285Y-91904761D01*
X95511904Y-91809523D01*
X95511904Y-91428571D01*
X95464285Y-91333333D01*
X95369047Y-91285714D01*
X95178571Y-91285714D01*
X95083333Y-91333333D01*
X95035714Y-91428571D01*
X95035714Y-91523809D01*
X95511904Y-91619047D01*
X94178571Y-91952380D02*
X94178571Y-90952380D01*
X94178571Y-91904761D02*
X94273809Y-91952380D01*
X94464285Y-91952380D01*
X94559523Y-91904761D01*
X94607142Y-91857142D01*
X94654761Y-91761904D01*
X94654761Y-91476190D01*
X94607142Y-91380952D01*
X94559523Y-91333333D01*
X94464285Y-91285714D01*
X94273809Y-91285714D01*
X94178571Y-91333333D01*
X92940476Y-91952380D02*
X92940476Y-90952380D01*
X92940476Y-91333333D02*
X92845238Y-91285714D01*
X92654761Y-91285714D01*
X92559523Y-91333333D01*
X92511904Y-91380952D01*
X92464285Y-91476190D01*
X92464285Y-91761904D01*
X92511904Y-91857142D01*
X92559523Y-91904761D01*
X92654761Y-91952380D01*
X92845238Y-91952380D01*
X92940476Y-91904761D01*
X92130952Y-91285714D02*
X91892857Y-91952380D01*
X91654761Y-91285714D02*
X91892857Y-91952380D01*
X91988095Y-92190476D01*
X92035714Y-92238095D01*
X92130952Y-92285714D01*
X91273809Y-91857142D02*
X91226190Y-91904761D01*
X91273809Y-91952380D01*
X91321428Y-91904761D01*
X91273809Y-91857142D01*
X91273809Y-91952380D01*
X91273809Y-91333333D02*
X91226190Y-91380952D01*
X91273809Y-91428571D01*
X91321428Y-91380952D01*
X91273809Y-91333333D01*
X91273809Y-91428571D01*
X90035714Y-91952380D02*
X90035714Y-90952380D01*
X89654761Y-90952380D01*
X89559523Y-91000000D01*
X89511904Y-91047619D01*
X89464285Y-91142857D01*
X89464285Y-91285714D01*
X89511904Y-91380952D01*
X89559523Y-91428571D01*
X89654761Y-91476190D01*
X90035714Y-91476190D01*
X88607142Y-91952380D02*
X88607142Y-91428571D01*
X88654761Y-91333333D01*
X88750000Y-91285714D01*
X88940476Y-91285714D01*
X89035714Y-91333333D01*
X88607142Y-91904761D02*
X88702380Y-91952380D01*
X88940476Y-91952380D01*
X89035714Y-91904761D01*
X89083333Y-91809523D01*
X89083333Y-91714285D01*
X89035714Y-91619047D01*
X88940476Y-91571428D01*
X88702380Y-91571428D01*
X88607142Y-91523809D01*
X88273809Y-91285714D02*
X87892857Y-91285714D01*
X88130952Y-90952380D02*
X88130952Y-91809523D01*
X88083333Y-91904761D01*
X87988095Y-91952380D01*
X87892857Y-91952380D01*
X87559523Y-91952380D02*
X87559523Y-91285714D01*
X87559523Y-91476190D02*
X87511904Y-91380952D01*
X87464285Y-91333333D01*
X87369047Y-91285714D01*
X87273809Y-91285714D01*
X86940476Y-91952380D02*
X86940476Y-91285714D01*
X86940476Y-90952380D02*
X86988095Y-91000000D01*
X86940476Y-91047619D01*
X86892857Y-91000000D01*
X86940476Y-90952380D01*
X86940476Y-91047619D01*
X86035714Y-91904761D02*
X86130952Y-91952380D01*
X86321428Y-91952380D01*
X86416666Y-91904761D01*
X86464285Y-91857142D01*
X86511904Y-91761904D01*
X86511904Y-91476190D01*
X86464285Y-91380952D01*
X86416666Y-91333333D01*
X86321428Y-91285714D01*
X86130952Y-91285714D01*
X86035714Y-91333333D01*
X85607142Y-91952380D02*
X85607142Y-90952380D01*
X85511904Y-91571428D02*
X85226190Y-91952380D01*
X85226190Y-91285714D02*
X85607142Y-91666666D01*
X83702380Y-91428571D02*
X83559523Y-91476190D01*
X83511904Y-91523809D01*
X83464285Y-91619047D01*
X83464285Y-91761904D01*
X83511904Y-91857142D01*
X83559523Y-91904761D01*
X83654761Y-91952380D01*
X84035714Y-91952380D01*
X84035714Y-90952380D01*
X83702380Y-90952380D01*
X83607142Y-91000000D01*
X83559523Y-91047619D01*
X83511904Y-91142857D01*
X83511904Y-91238095D01*
X83559523Y-91333333D01*
X83607142Y-91380952D01*
X83702380Y-91428571D01*
X84035714Y-91428571D01*
X82607142Y-91285714D02*
X82607142Y-91952380D01*
X83035714Y-91285714D02*
X83035714Y-91809523D01*
X82988095Y-91904761D01*
X82892857Y-91952380D01*
X82750000Y-91952380D01*
X82654761Y-91904761D01*
X82607142Y-91857142D01*
X82130952Y-91952380D02*
X82130952Y-91285714D01*
X82130952Y-91476190D02*
X82083333Y-91380952D01*
X82035714Y-91333333D01*
X81940476Y-91285714D01*
X81845238Y-91285714D01*
X81511904Y-91952380D02*
X81511904Y-91285714D01*
X81511904Y-91476190D02*
X81464285Y-91380952D01*
X81416666Y-91333333D01*
X81321428Y-91285714D01*
X81226190Y-91285714D01*
X80892857Y-91952380D02*
X80892857Y-91285714D01*
X80892857Y-90952380D02*
X80940476Y-91000000D01*
X80892857Y-91047619D01*
X80845238Y-91000000D01*
X80892857Y-90952380D01*
X80892857Y-91047619D01*
X80464285Y-91904761D02*
X80369047Y-91952380D01*
X80178571Y-91952380D01*
X80083333Y-91904761D01*
X80035714Y-91809523D01*
X80035714Y-91761904D01*
X80083333Y-91666666D01*
X80178571Y-91619047D01*
X80321428Y-91619047D01*
X80416666Y-91571428D01*
X80464285Y-91476190D01*
X80464285Y-91428571D01*
X80416666Y-91333333D01*
X80321428Y-91285714D01*
X80178571Y-91285714D01*
X80083333Y-91333333D01*
X105407142Y-85939285D02*
X105007142Y-85939285D01*
X104835714Y-86567857D02*
X105407142Y-86567857D01*
X105407142Y-85367857D01*
X104835714Y-85367857D01*
X103807142Y-85767857D02*
X103807142Y-86567857D01*
X104321428Y-85767857D02*
X104321428Y-86396428D01*
X104264285Y-86510714D01*
X104150000Y-86567857D01*
X103978571Y-86567857D01*
X103864285Y-86510714D01*
X103807142Y-86453571D01*
X103235714Y-86567857D02*
X103235714Y-85767857D01*
X103235714Y-85996428D02*
X103178571Y-85882142D01*
X103121428Y-85825000D01*
X103007142Y-85767857D01*
X102892857Y-85767857D01*
X102321428Y-86567857D02*
X102435714Y-86510714D01*
X102492857Y-86453571D01*
X102550000Y-86339285D01*
X102550000Y-85996428D01*
X102492857Y-85882142D01*
X102435714Y-85825000D01*
X102321428Y-85767857D01*
X102150000Y-85767857D01*
X102035714Y-85825000D01*
X101978571Y-85882142D01*
X101921428Y-85996428D01*
X101921428Y-86339285D01*
X101978571Y-86453571D01*
X102035714Y-86510714D01*
X102150000Y-86567857D01*
X102321428Y-86567857D01*
X100721428Y-86567857D02*
X101121428Y-85996428D01*
X101407142Y-86567857D02*
X101407142Y-85367857D01*
X100950000Y-85367857D01*
X100835714Y-85425000D01*
X100778571Y-85482142D01*
X100721428Y-85596428D01*
X100721428Y-85767857D01*
X100778571Y-85882142D01*
X100835714Y-85939285D01*
X100950000Y-85996428D01*
X101407142Y-85996428D01*
X99692857Y-86567857D02*
X99692857Y-85939285D01*
X99750000Y-85825000D01*
X99864285Y-85767857D01*
X100092857Y-85767857D01*
X100207142Y-85825000D01*
X99692857Y-86510714D02*
X99807142Y-86567857D01*
X100092857Y-86567857D01*
X100207142Y-86510714D01*
X100264285Y-86396428D01*
X100264285Y-86282142D01*
X100207142Y-86167857D01*
X100092857Y-86110714D01*
X99807142Y-86110714D01*
X99692857Y-86053571D01*
X98607142Y-86510714D02*
X98721428Y-86567857D01*
X98950000Y-86567857D01*
X99064285Y-86510714D01*
X99121428Y-86453571D01*
X99178571Y-86339285D01*
X99178571Y-85996428D01*
X99121428Y-85882142D01*
X99064285Y-85825000D01*
X98950000Y-85767857D01*
X98721428Y-85767857D01*
X98607142Y-85825000D01*
X98092857Y-86567857D02*
X98092857Y-85367857D01*
X97978571Y-86110714D02*
X97635714Y-86567857D01*
X97635714Y-85767857D02*
X98092857Y-86225000D01*
X95692857Y-86510714D02*
X95807142Y-86567857D01*
X96035714Y-86567857D01*
X96150000Y-86510714D01*
X96207142Y-86453571D01*
X96264285Y-86339285D01*
X96264285Y-85996428D01*
X96207142Y-85882142D01*
X96150000Y-85825000D01*
X96035714Y-85767857D01*
X95807142Y-85767857D01*
X95692857Y-85825000D01*
X95007142Y-86567857D02*
X95121428Y-86510714D01*
X95178571Y-86453571D01*
X95235714Y-86339285D01*
X95235714Y-85996428D01*
X95178571Y-85882142D01*
X95121428Y-85825000D01*
X95007142Y-85767857D01*
X94835714Y-85767857D01*
X94721428Y-85825000D01*
X94664285Y-85882142D01*
X94607142Y-85996428D01*
X94607142Y-86339285D01*
X94664285Y-86453571D01*
X94721428Y-86510714D01*
X94835714Y-86567857D01*
X95007142Y-86567857D01*
X94092857Y-86567857D02*
X94092857Y-85767857D01*
X94092857Y-85882142D02*
X94035714Y-85825000D01*
X93921428Y-85767857D01*
X93750000Y-85767857D01*
X93635714Y-85825000D01*
X93578571Y-85939285D01*
X93578571Y-86567857D01*
X93578571Y-85939285D02*
X93521428Y-85825000D01*
X93407142Y-85767857D01*
X93235714Y-85767857D01*
X93121428Y-85825000D01*
X93064285Y-85939285D01*
X93064285Y-86567857D01*
X92492857Y-85767857D02*
X92492857Y-86967857D01*
X92492857Y-85825000D02*
X92378571Y-85767857D01*
X92150000Y-85767857D01*
X92035714Y-85825000D01*
X91978571Y-85882142D01*
X91921428Y-85996428D01*
X91921428Y-86339285D01*
X91978571Y-86453571D01*
X92035714Y-86510714D01*
X92150000Y-86567857D01*
X92378571Y-86567857D01*
X92492857Y-86510714D01*
X90892857Y-86567857D02*
X90892857Y-85939285D01*
X90950000Y-85825000D01*
X91064285Y-85767857D01*
X91292857Y-85767857D01*
X91407142Y-85825000D01*
X90892857Y-86510714D02*
X91007142Y-86567857D01*
X91292857Y-86567857D01*
X91407142Y-86510714D01*
X91464285Y-86396428D01*
X91464285Y-86282142D01*
X91407142Y-86167857D01*
X91292857Y-86110714D01*
X91007142Y-86110714D01*
X90892857Y-86053571D01*
X90492857Y-85767857D02*
X90035714Y-85767857D01*
X90321428Y-85367857D02*
X90321428Y-86396428D01*
X90264285Y-86510714D01*
X90150000Y-86567857D01*
X90035714Y-86567857D01*
X89635714Y-86567857D02*
X89635714Y-85767857D01*
X89635714Y-85367857D02*
X89692857Y-85425000D01*
X89635714Y-85482142D01*
X89578571Y-85425000D01*
X89635714Y-85367857D01*
X89635714Y-85482142D01*
X89064285Y-86567857D02*
X89064285Y-85367857D01*
X89064285Y-85825000D02*
X88950000Y-85767857D01*
X88721428Y-85767857D01*
X88607142Y-85825000D01*
X88550000Y-85882142D01*
X88492857Y-85996428D01*
X88492857Y-86339285D01*
X88550000Y-86453571D01*
X88607142Y-86510714D01*
X88721428Y-86567857D01*
X88950000Y-86567857D01*
X89064285Y-86510714D01*
X87807142Y-86567857D02*
X87921428Y-86510714D01*
X87978571Y-86396428D01*
X87978571Y-85367857D01*
X86892857Y-86510714D02*
X87007142Y-86567857D01*
X87235714Y-86567857D01*
X87350000Y-86510714D01*
X87407142Y-86396428D01*
X87407142Y-85939285D01*
X87350000Y-85825000D01*
X87235714Y-85767857D01*
X87007142Y-85767857D01*
X86892857Y-85825000D01*
X86835714Y-85939285D01*
X86835714Y-86053571D01*
X87407142Y-86167857D01*
X85407142Y-85767857D02*
X85407142Y-86967857D01*
X85407142Y-85825000D02*
X85292857Y-85767857D01*
X85064285Y-85767857D01*
X84950000Y-85825000D01*
X84892857Y-85882142D01*
X84835714Y-85996428D01*
X84835714Y-86339285D01*
X84892857Y-86453571D01*
X84950000Y-86510714D01*
X85064285Y-86567857D01*
X85292857Y-86567857D01*
X85407142Y-86510714D01*
X84150000Y-86567857D02*
X84264285Y-86510714D01*
X84321428Y-86453571D01*
X84378571Y-86339285D01*
X84378571Y-85996428D01*
X84321428Y-85882142D01*
X84264285Y-85825000D01*
X84150000Y-85767857D01*
X83978571Y-85767857D01*
X83864285Y-85825000D01*
X83807142Y-85882142D01*
X83750000Y-85996428D01*
X83750000Y-86339285D01*
X83807142Y-86453571D01*
X83864285Y-86510714D01*
X83978571Y-86567857D01*
X84150000Y-86567857D01*
X83350000Y-85767857D02*
X83121428Y-86567857D01*
X82892857Y-85996428D01*
X82664285Y-86567857D01*
X82435714Y-85767857D01*
X81521428Y-86510714D02*
X81635714Y-86567857D01*
X81864285Y-86567857D01*
X81978571Y-86510714D01*
X82035714Y-86396428D01*
X82035714Y-85939285D01*
X81978571Y-85825000D01*
X81864285Y-85767857D01*
X81635714Y-85767857D01*
X81521428Y-85825000D01*
X81464285Y-85939285D01*
X81464285Y-86053571D01*
X82035714Y-86167857D01*
X80950000Y-86567857D02*
X80950000Y-85767857D01*
X80950000Y-85996428D02*
X80892857Y-85882142D01*
X80835714Y-85825000D01*
X80721428Y-85767857D01*
X80607142Y-85767857D01*
X79350000Y-86510714D02*
X79235714Y-86567857D01*
X79007142Y-86567857D01*
X78892857Y-86510714D01*
X78835714Y-86396428D01*
X78835714Y-86339285D01*
X78892857Y-86225000D01*
X79007142Y-86167857D01*
X79178571Y-86167857D01*
X79292857Y-86110714D01*
X79350000Y-85996428D01*
X79350000Y-85939285D01*
X79292857Y-85825000D01*
X79178571Y-85767857D01*
X79007142Y-85767857D01*
X78892857Y-85825000D01*
X77807142Y-85767857D02*
X77807142Y-86567857D01*
X78321428Y-85767857D02*
X78321428Y-86396428D01*
X78264285Y-86510714D01*
X78150000Y-86567857D01*
X77978571Y-86567857D01*
X77864285Y-86510714D01*
X77807142Y-86453571D01*
X77235714Y-85767857D02*
X77235714Y-86967857D01*
X77235714Y-85825000D02*
X77121428Y-85767857D01*
X76892857Y-85767857D01*
X76778571Y-85825000D01*
X76721428Y-85882142D01*
X76664285Y-85996428D01*
X76664285Y-86339285D01*
X76721428Y-86453571D01*
X76778571Y-86510714D01*
X76892857Y-86567857D01*
X77121428Y-86567857D01*
X77235714Y-86510714D01*
X76150000Y-85767857D02*
X76150000Y-86967857D01*
X76150000Y-85825000D02*
X76035714Y-85767857D01*
X75807142Y-85767857D01*
X75692857Y-85825000D01*
X75635714Y-85882142D01*
X75578571Y-85996428D01*
X75578571Y-86339285D01*
X75635714Y-86453571D01*
X75692857Y-86510714D01*
X75807142Y-86567857D01*
X76035714Y-86567857D01*
X76150000Y-86510714D01*
X74892857Y-86567857D02*
X75007142Y-86510714D01*
X75064285Y-86396428D01*
X75064285Y-85367857D01*
X74550000Y-85767857D02*
X74264285Y-86567857D01*
X73978571Y-85767857D02*
X74264285Y-86567857D01*
X74378571Y-86853571D01*
X74435714Y-86910714D01*
X74550000Y-86967857D01*
X97921428Y-88060714D02*
X97007142Y-88060714D01*
X97464285Y-88517857D02*
X97464285Y-87603571D01*
X95578571Y-87260714D02*
X96607142Y-88803571D01*
X95178571Y-88060714D02*
X94264285Y-88060714D01*
X92150000Y-88517857D02*
X92835714Y-88517857D01*
X92492857Y-88517857D02*
X92492857Y-87317857D01*
X92607142Y-87489285D01*
X92721428Y-87603571D01*
X92835714Y-87660714D01*
X91692857Y-87432142D02*
X91635714Y-87375000D01*
X91521428Y-87317857D01*
X91235714Y-87317857D01*
X91121428Y-87375000D01*
X91064285Y-87432142D01*
X91007142Y-87546428D01*
X91007142Y-87660714D01*
X91064285Y-87832142D01*
X91750000Y-88517857D01*
X91007142Y-88517857D01*
X90664285Y-87317857D02*
X90264285Y-88517857D01*
X89864285Y-87317857D01*
X87350000Y-88917857D02*
X87350000Y-87203571D01*
X84664285Y-88060714D02*
X83750000Y-88060714D01*
X84207142Y-88517857D02*
X84207142Y-87603571D01*
X82607142Y-87317857D02*
X83178571Y-87317857D01*
X83235714Y-87889285D01*
X83178571Y-87832142D01*
X83064285Y-87775000D01*
X82778571Y-87775000D01*
X82664285Y-87832142D01*
X82607142Y-87889285D01*
X82550000Y-88003571D01*
X82550000Y-88289285D01*
X82607142Y-88403571D01*
X82664285Y-88460714D01*
X82778571Y-88517857D01*
X83064285Y-88517857D01*
X83178571Y-88460714D01*
X83235714Y-88403571D01*
X82207142Y-87317857D02*
X81807142Y-88517857D01*
X81407142Y-87317857D01*
M02*
